<svg id="Layer_1" data-name="Layer 1" xmlns="http://www.w3.org/2000/svg" xmlns:xlink="http://www.w3.org/1999/xlink" viewBox="0 0 363.36 124.38"><defs><style>.cls-1,.cls-2,.cls-6{isolation:isolate;}.cls-2{font-size:48px;font-family:SFProText-Thin, SF Pro Text;font-weight:200;}.cls-2,.cls-6,.cls-8,.cls-9{fill:#fff;}.cls-3{letter-spacing:-0.02em;}.cls-4{letter-spacing:-0.02em;}.cls-13,.cls-5{fill:none;}.cls-6{font-size:9px;font-family:ArialMT, Arial;}.cls-7{letter-spacing:-0.07em;}.cls-8{stroke:#000;}.cls-10,.cls-11,.cls-13,.cls-8{stroke-miterlimit:10;}.cls-10,.cls-13{stroke:#fff;}.cls-10,.cls-11{stroke-width:4px;}.cls-10{fill:url(#radial-gradient);}.cls-11,.cls-12{fill:#f1f2f2;stroke:#f1f2f2;}.cls-12{stroke-miterlimit:10;}.cls-13{stroke-width:5px;}</style><radialGradient id="radial-gradient" cx="317.1" cy="419.5" r="25.6" gradientTransform="matrix(1, 0, 0, -1, -191.6, 476.65)" gradientUnits="userSpaceOnUse"><stop offset="0.04" stop-color="#fff"/><stop offset="0.04" stop-color="#fff5ec"/><stop offset="0.05" stop-color="#ffe4c7"/><stop offset="0.07" stop-color="#fdc990"/><stop offset="0.09" stop-color="#faa648"/><stop offset="0.1" stop-color="#f7941d"/><stop offset="0.12" stop-color="#f6861f" stop-opacity="0.99"/><stop offset="0.16" stop-color="#f15d22" stop-opacity="0.98"/><stop offset="0.2" stop-color="#ed1c24" stop-opacity="0.96"/><stop offset="0.71" stop-color="#fff2ec" stop-opacity="0.95"/><stop offset="0.74" stop-color="#fff" stop-opacity="0.95"/><stop offset="0.89" stop-color="#fff" stop-opacity="0.95"/></radialGradient></defs><g class="cls-1"><text class="cls-2" transform="translate(242.56 40.91)">La<tspan class="cls-3" x="52.13" y="0">z</tspan><tspan x="75.75" y="0">er</tspan></text><text class="cls-2" transform="translate(242.56 98.51)">E<tspan class="cls-4" x="27.33" y="0">y</tspan><tspan x="50.84" y="0">es</tspan></text></g><ellipse class="cls-5" cx="126.4" cy="56.95" rx="46.8" ry="45.8"/><g class="cls-1"><text class="cls-6" transform="translate(118.6 17.56)">001</text><text class="cls-6" transform="translate(95.4 28.36)">0<tspan class="cls-7" x="5.01" y="0">1</tspan><tspan x="9.34" y="0">1001000</tspan><tspan class="cls-7" x="44.38" y="0">1</tspan><tspan x="48.72" y="0">100</tspan></text><text class="cls-6" transform="translate(86.2 39.16)"><tspan class="cls-7">1</tspan><tspan x="4.34" y="0">100</tspan><tspan class="cls-7" x="19.35" y="0">1</tspan><tspan x="23.69" y="0">1010000</tspan><tspan class="cls-7" x="58.73" y="0">1</tspan><tspan x="63.07" y="0">1010</tspan></text><text class="cls-6" transform="translate(81.4 49.96)">100<tspan class="cls-7" x="15.02" y="0">1</tspan><tspan x="19.35" y="0">10</tspan><tspan class="cls-7" x="29.36" y="0">1</tspan><tspan x="33.7" y="0">1000</tspan><tspan class="cls-7" x="53.72" y="0">11111</tspan><tspan x="75.41" y="0">100</tspan></text><text class="cls-6" transform="translate(79.7 60.76)">100<tspan class="cls-7" x="15.02" y="0">1</tspan><tspan x="19.35" y="0">1000100</tspan><tspan class="cls-7" x="54.39" y="0">1</tspan><tspan x="58.73" y="0">10000</tspan><tspan class="cls-7" x="83.76" y="0">1</tspan><tspan x="88.09" y="0">1 </tspan></text><text class="cls-6" transform="translate(82 71.56)">000<tspan class="cls-7" x="15.02" y="0">1</tspan><tspan x="19.35" y="0" xml:space="preserve">1000               000</tspan><tspan class="cls-7" x="91.9" y="0">1</tspan><tspan x="96.24" y="0">1 </tspan></text><text class="cls-6" transform="translate(87.4 82.36)"><tspan class="cls-7">1</tspan><tspan x="4.34" y="0">100100</tspan><tspan class="cls-7" x="34.37" y="0">11</tspan><tspan x="43.04" y="0">1000</tspan><tspan class="cls-7" x="63.07" y="0">1</tspan><tspan x="67.4" y="0">10</tspan></text><text class="cls-6" transform="translate(97.7 93.16)"><tspan class="cls-7">11</tspan><tspan x="8.67" y="0">100</tspan><tspan class="cls-7" x="23.69" y="0">1</tspan><tspan x="28.03" y="0">10</tspan><tspan class="cls-7" x="38.04" y="0">11</tspan><tspan x="46.71" y="0">10</tspan></text></g><ellipse cx="126.2" cy="57.05" rx="24.9" ry="23.6"/><path class="cls-8" d="M402.8,386.2" transform="translate(-191.6 -315.35)"/><path class="cls-9" d="M191.6,393.6c15.3-15.3,31-30.2,48.9-43A176.3,176.3,0,0,1,269,333.8a151.71,151.71,0,0,1,31.7-10.7c5.5-1.2,11.1-2.1,16.7-2.8,1.4-.2,2.8-.3,4.2-.4s2.8-.3,4.3-.3c2.9-.1,5.7-.2,8.6-.1a103,103,0,0,1,33.5,6.7c2.7,1,5.3,2.1,7.8,3.2s5.1,2.4,7.6,3.7l3.7,2c1.2.7,2.5,1.4,3.7,2.2,2.4,1.5,4.8,3.2,7,4.9a68.64,68.64,0,0,1,6.5,5.6c1,1,2,2,3,3.1a28.76,28.76,0,0,1,2.7,3.4,91.25,91.25,0,0,1,8.5,14.3l-1.2.9c-4.3-3.5-8.2-7.3-12.4-10.4-2.1-1.6-4.1-2.9-6.3-4.3s-4.4-2.6-6.7-3.8-4.6-2.2-6.9-3.2c-1.2-.5-2.3-1-3.5-1.4l-3.6-1.4c-2.4-.9-4.9-1.8-7.3-2.6s-4.9-1.6-7.4-2.3a179.05,179.05,0,0,0-29.8-6.1,109.78,109.78,0,0,0-15.2-.7,114.27,114.27,0,0,0-15.4,1.3,143.2,143.2,0,0,0-30,8.1,172.56,172.56,0,0,0-28.3,13.9c-18.3,10.8-35.1,24.4-52,37.9Z" transform="translate(-191.6 -315.35)"/><path class="cls-9" d="M197.3,406.9c2.1-1.6,4.1-3.4,6.5-5a24.19,24.19,0,0,1,3.9-2.1,19.85,19.85,0,0,1,4.6-1.3,28.83,28.83,0,0,1,9.3.5,48.4,48.4,0,0,1,8.4,2.7,134.22,134.22,0,0,1,14.7,7.4c2.3,1.2,4.5,2.4,6.7,3.4.6.3,1.1.5,1.6.7s1.1.5,1.6.7l1.6.6,1.8.7c9.8,3.5,19.2,6.9,28.9,8.9a104.91,104.91,0,0,0,14.9,2.2,111.63,111.63,0,0,0,15.3.2,128.83,128.83,0,0,0,30.2-5l3.7-1.1,3.6-1.2,3.6-1.4c1.1-.5,2.3-1,3.4-1.5a69.48,69.48,0,0,0,6.6-3.6,53.86,53.86,0,0,0,6.3-4.3,85.55,85.55,0,0,0,11.4-10.3,149.76,149.76,0,0,0,10.2-12l4.8-6.3c1.6-2.1,3.2-4.2,4.6-6.4a37.14,37.14,0,0,0,6.2-14.1l1.5.2c-.3,5.5-2.4,10.8-4.9,15.6-1.3,2.4-2.7,4.7-4.1,7s-2.8,4.6-4.3,6.8c-5.8,9-12.4,17.9-20.7,25.3-2.1,1.9-4.3,3.6-6.5,5.3a66.24,66.24,0,0,1-7.1,4.6c-1.2.7-2.5,1.4-3.7,2l-3.8,1.8-3.8,1.7-3.9,1.5a143,143,0,0,1-32.3,7.5c-5.5.6-11.1,1-16.6,1.1a120.26,120.26,0,0,1-16.9-.8c-2.8-.4-5.7-.8-8.5-1.4a76.17,76.17,0,0,1-8.2-2.2,150.89,150.89,0,0,1-15.5-6l-1.8-.9-2-1a19.83,19.83,0,0,1-2-1.1c-.7-.4-1.3-.7-1.9-1.1-2.5-1.5-4.9-3.1-7.1-4.7-4.4-3.2-8.5-6.5-12.6-9.2a57.58,57.58,0,0,0-6.3-3.7,22.25,22.25,0,0,0-6.3-2.1,11.45,11.45,0,0,0-3.2-.1,28.31,28.31,0,0,0-3.6.7c-2.5.7-5,1.6-7.7,2.3Z" transform="translate(-191.6 -315.35)"/><circle class="cls-10" cx="125.5" cy="57.15" r="25.6"/><circle class="cls-11" cx="135.7" cy="44.25" r="3.4"/><ellipse class="cls-12" cx="306.17" cy="386.62" rx="1.3" ry="4" transform="translate(-378.52 62.25) rotate(-50.58)"/><circle class="cls-13" cx="125.5" cy="57.15" r="44.4"/></svg>