<?xml version="1.0" encoding="UTF-8"?>
<svg id="Layer_1" data-name="Layer 1" xmlns="http://www.w3.org/2000/svg" viewBox="0 0 352 511.96">
  <defs>
    <style>
      .cls-1 {
        fill: #fff;
      }
    </style>
  </defs>
  <path class="cls-1" d="M96.1,454.3c0,6.3,1.82,12.44,5.28,17.69l17.14,25.69c5.25,7.88,17.17,14.28,26.64,14.28h61.67c9.44,0,21.36-6.4,26.61-14.28l17.08-25.68c2.94-4.44,5.35-12.37,5.35-17.7l.13-39.2H96l.1,39.2ZM176,0C74.02,.32,0,82.97,0,175.1c0,44.38,16.44,84.84,43.56,115.8,16.53,18.84,42.34,58.23,52.22,91.45,.03,.25,.09,.52,.12,.78h160.2c.03-.27,.09-.52,.12-.78,9.88-33.22,35.69-72.61,52.22-91.45,27.15-30.1,43.55-70.5,43.55-115.8C352,78.8,273.2,0,176,0Zm96.4,260.1c-15.66,17.85-35.04,46.3-49.05,75.89h-94.61c-14.01-29.59-33.39-58.04-49.04-75.88-20.46-23.31-31.7-54.01-31.7-85.01,0-61.8,48.1-126.85,127.1-127.1,71.5,0,128.9,57.4,128.9,127.1,0,31-11.2,61.7-31.6,85ZM160,80c-44.1,0-80,35.9-80,80,0,8.84,7.16,16,16,16s16-7.2,16-16c0-26.47,21.53-48,48-48,8.84,0,16-7.15,16-15.99s-7.2-16.01-16-16.01Z"/>
</svg>