<svg id="Layer_1" data-name="Layer 1" xmlns="http://www.w3.org/2000/svg" viewBox="0 0 536.05 536.15"><defs><style>.cls-1,.cls-2{fill:none;stroke-miterlimit:10;stroke-width:32px;}.cls-1{stroke:#fff;}.cls-2{stroke:#000;}</style></defs><path class="cls-1" d="M177.9,494.1a48.1,48.1,0,0,1-67.9,0L17.9,401.9a48.1,48.1,0,0,1,0-67.9l50.7-50.7,48,48a16,16,0,1,0,22.6-22.6l-48-48,41.4-41.4,48,48a16,16,0,0,0,22.6-22.6l-48-48,41.4-41.4,48,48a16,16,0,0,0,22.6-22.6l-48-48,41.4-41.4,48,48a16,16,0,0,0,22.6-22.6l-48-48L333.9,18a48.1,48.1,0,0,1,67.9,0l92.1,92.1a48.1,48.1,0,0,1,0,67.9Z" transform="translate(12.13 12.03)"/><path class="cls-2" d="M201,395" transform="translate(12.13 12.03)"/></svg>