<?xml version="1.0" encoding="utf-8"?>
<!-- Generator: Adobe Illustrator 25.4.1, SVG Export Plug-In . SVG Version: 6.00 Build 0)  -->
<svg version="1.1" id="Layer_1" xmlns="http://www.w3.org/2000/svg" xmlns:xlink="http://www.w3.org/1999/xlink" x="0px" y="0px"
	 viewBox="0 0 660.5 488" style="enable-background:new 0 0 660.5 488;" xml:space="preserve">
<style type="text/css">
	.st0{fill:#FFFFFF;}
	.st1{fill:none;stroke:#FFFFFF;stroke-width:40;stroke-miterlimit:10;}
</style>
<path class="st0" d="M553.6,20.5c123.4,100.3,142.2,281.6,42,405c-12.5,15.4-26.6,29.5-42,42c-10.3,8.4-25.4,6.8-33.8-3.5
	c-8.4-10.3-6.8-25.4,3.5-33.8c102.9-83.5,118.6-234.6,35.1-337.4c-10.4-12.9-22.2-24.6-35.1-35.1c-10.3-8.4-11.9-23.5-3.5-33.8
	S543.3,12,553.6,20.5L553.6,20.5z"/>
<path class="st0" d="M493.1,95c82.3,66.9,94.8,187.8,27.9,270.1c-8.3,10.2-17.7,19.6-27.9,27.9c-10.3,8.4-25.4,6.8-33.8-3.5
	s-6.8-25.4,3.5-33.8c61.7-50.2,71.1-140.9,20.9-202.6c-6.2-7.7-13.3-14.7-20.9-20.9c-10.3-8.4-11.9-23.5-3.5-33.8
	C467.7,88.1,482.8,86.5,493.1,95L493.1,95z"/>
<path class="st0" d="M432.6,169.5c41.1,33.5,47.3,94,13.8,135.2c-4.1,5.1-8.8,9.7-13.8,13.8c-10.3,8.4-25.4,6.8-33.8-3.5
	s-6.8-25.4,3.5-33.8c20.6-16.7,23.7-47,7-67.5c-2.1-2.6-4.4-4.9-7-7c-10.3-8.4-11.9-23.5-3.5-33.8
	C407.2,162.6,422.3,161,432.6,169.5L432.6,169.5z"/>
<path class="st1" d="M321.1,22.8C332.6,28,340,39.4,340,52v384c0,17.7-14.3,32-32,32c-7.9,0-15.5-2.9-21.3-8.1L151.8,340H84
	c-35.3,0-64-28.7-64-64v-64c0-35.3,28.7-64,64-64h67.8L286.7,28.1C296.1,19.7,309.6,17.6,321.1,22.8z"/>
</svg>
